<svg id="visual" viewBox="0 0 960 800" width="960" height="800" xmlns="http://www.w3.org/2000/svg" xmlns:xlink="http://www.w3.org/1999/xlink" version="1.1"><rect width="960" height="800" fill="#DDAC26"></rect><g><g transform="translate(290 183)"><path d="M0 -112.8L79.8 -79.8L112.8 0L79.8 79.8L0 112.8L-79.8 79.8L-112.8 0L-79.8 -79.8Z" fill="none" stroke="#CCCCCC" stroke-width="2"></path></g><g transform="translate(358 469)"><path d="M0 -79L55.9 -55.9L79 0L55.9 55.9L0 79L-55.9 55.9L-79 0L-55.9 -55.9Z" fill="none" stroke="#CCCCCC" stroke-width="2"></path></g><g transform="translate(814 668)"><path d="M0 -99L70 -70L99 0L70 70L0 99L-70 70L-99 0L-70 -70Z" stroke="#CCCCCC" fill="none" stroke-width="2"></path></g><g transform="translate(64 221)"><path d="M0 -47L33.2 -33.2L47 0L33.2 33.2L0 47L-33.2 33.2L-47 0L-33.2 -33.2Z" stroke="#CCCCCC" fill="none" stroke-width="2"></path></g><g transform="translate(596 603)"><path d="M0 -71L50.2 -50.2L71 0L50.2 50.2L0 71L-50.2 50.2L-71 0L-50.2 -50.2Z" stroke="#CCCCCC" fill="none" stroke-width="2"></path></g><g transform="translate(119 540)"><path d="M0 -60L42.4 -42.4L60 0L42.4 42.4L0 60L-42.4 42.4L-60 0L-42.4 -42.4Z" stroke="#CCCCCC" fill="none" stroke-width="2"></path></g><g transform="translate(928 186)"><path d="M0 -48L33.9 -33.9L48 0L33.9 33.9L0 48L-33.9 33.9L-48 0L-33.9 -33.9Z" stroke="#CCCCCC" fill="none" stroke-width="2"></path></g><g transform="translate(714 268)"><path d="M0 -63L44.5 -44.5L63 0L44.5 44.5L0 63L-44.5 44.5L-63 0L-44.5 -44.5Z" stroke="#CCCCCC" fill="none" stroke-width="2"></path></g></g></svg>